<svg xmlns="http://www.w3.org/2000/svg" width="1006.197" height="1333.841" fill-rule="evenodd" clip-rule="evenodd" image-rendering="optimizeQuality" shape-rendering="geometricPrecision" text-rendering="geometricPrecision" viewBox="0 0 5702 7559"><defs><style>.fil6{fill:#fefefe}.fil2{fill:#fee1a6}.fil8{fill:#ec671f}.fil15{fill:#e54144}.fil3{fill:#f2b149}.fil14{fill:#c5b7da}.fil1{fill:#ba2862}.fil4{fill:#774291}.fil13{fill:#3f2f45}.fil7{fill:#262629}.fil16{fill:#284760}.fil9{fill:#115d5d}</style></defs><g id="__x0023_Layer_x0020_1"><g id="_1928479963520"><path fill="#3f2f45" d="M1644 3894s-1124 71-1257 124-239 115-292 514c-53 398-80 1195-62 1513 10 171-11 593-33 949v565h5680s10-186 22-448V5380c-120-194-771-388-1084-583-328-203-664-425-664-425l-451-513-1859 35z"/><path d="M3896 4307l412 729-248 213s106 398 106 575c0 138-555 1252-799 1735H1140c-47-251-142-825-169-1434-35-814-26-1195-26-1195l425 18 389-1056 1744-33 393 448z" class="fil1"/><path d="M1931 2534s-44 269-53 416c-9 146-18 593 44 734 62 142 155 230 270 323s261 279 381 341c119 62 371 133 593 35 221-97 363-243 429-305s257-199 296-438c40-239 40-451 40-544s111-735 142-899 22-274-62-518c-84-243-120-270-120-270s-57 43-163 78c-107 35-149 13-149 13s38-6 100-37 62-31 62-31-100 35-257 46-270-86-270-86 5 44 42 66c38 22 42 25 42 25s-68 0-115-49c-46-49-90-84-90-84l53 106s-5-22-122-60c-117-37-179-108-179-108s62 86 95 108 35 22 35 22-106 0-170-46c-64-47-93-91-93-91l86 60s-13-58-112-86c-100-29-191 22-191 22s42-45 78-56c35-11 35-11 35-11s-130-17-212 34c-82 50-135 132-135 132s17-93 44-128c26-35 26-35 26-35s-104 57-181 154c-77 98-111 326-104 412s31 170 31 170-104 281-146 585z" class="fil2"/><path d="M2719 2974c-35 13-469 0-566 137s66 434 4 434c-52 0-232-175-285-366-1 185 9 412 50 505 62 142 155 230 270 323 30 25 63 55 96 89 128 101 233 177 263 201 84 66 133 75 133 75s-323-376-270-783 465-513 305-615z" class="fil3"/><path d="M2449 3483s-68 4-44 104c25 99 122 241 283 314 162 73 456 13 456 13l-695-431z" class="fil3"/><path d="M3674 4053c65 161 130 348 138 479 18 274-26 832-26 832s265-514 265-638-62-274-62-274 266 239 487 469 717 460 912 531c136 50 241 155 314 347v-419c-120-194-771-388-1084-583-328-203-664-425-664-425l-280-319zM223 4129c23-15 43-21 58-13 106 53-27 168 0 265 26 98 292-88 655-221s540-186 540-186l31-71c-304 21-1016 74-1120 115-61 25-117 51-164 111zM281 5302s18 1018 168 1504c70 228 173 513 263 753h307c-83-440-242-1206-242-1505 0-398 0-575 0-575s-133 416-45 964c89 549 124 965 124 965s-177-876-221-991-354-1115-354-1115z" class="fil4"/><path fill="#b6d9ed" d="M1354 7559c-10-225-23-696 16-1116 53-575 141-964 141-964s443 557 514 787c70 231 132 611 194 505s222-965 381-1098c159-132 814-637 770-522s-142 522-177 930c-31 357-110 1201-117 1478H1354z"/><path d="M1597 7559c-26-298-86-883-59-1160 35-363 62-469 141-301 80 168 98 664 248 753 151 88 213 26 248 336 13 114 21 248 27 372h-605zM2741 6138s-190 425-239 633c-48 208 164 159 164 159s-9-208 173-265c124-40 240-71 306-48-7 89-15 180-23 270-121 222-347 552-455 672h-104c-88-101-252-343-220-527 40-226 62-646 115-726 53-79 283-168 283-168z" class="fil6"/><path d="M1905 3630c-95 37-304 143-611 424-429 394-447 517-447 517l399 390s-80 66-80 164c0 97 84 150 84 150s456 748 598 965c141 217 331 540 362 686s31 385 31 385 115-1186 284-1372c168-186 557-336 655-381 97-44 97-292 97-292s204-17 217 58-111 195-191 252c-79 58-88 58-88 58s88 31 137-23c49-53 173-146 190-270 18-123 85-995 80-1150-1-43-10-83-23-117l-4 4c-22 20-52 50-90 83 1 54-3 125-20 211-40 199-350 717-389 828-40 111-169 199-253 239s-225 168-349 389c-124 222-275 841-275 841s-17-22-79-150c-62-129-49-248-80-447s-111-527-119-691c-9-163-58-548-31-792 26-243 123-376 123-460v-269c-43-51-81-107-111-176-6-15-12-33-17-54zm1403 679c-6 3-11 7-17 10 6-3 11-7 17-10zm-113 61c-3 1-6 3-9 4l9-4zm-9 4c-3 2-6 3-10 5 4-2 7-3 10-5zm-10 5c-4 1-7 3-10 4 3-1 6-3 10-4zm-1068-444c-3-2-5-4-7-6 2 2 4 4 7 6z" class="fil4"/><path d="M3973 2779c20-27 52-74 69-126 26-80 15-195 37-270 23-75 87-117 87-476 0-358-120-535-182-619s-99-226-99-226-11-40-38-82c-26-42-31-53-31-53s-24-73-29-146c-4-73-4-230-4-230s-20 60-27 148c-6 89-4 93-4 93s-27-86-24-166c2-79 17-139 17-139s-26 44-51 128c-24 84-24 120-24 120s-24-124-22-184 2-60 2-60l-20 91s-9-20-35-55c-27-36-31-29-42-58s-29-75-22-137c6-62 11-82 11-82s-44 66-53 135-9 80-9 80l-29-138-31 78s-4-29 16-153c19-124 31-148 31-148s-87 77-116 117c-28 40-37 60-37 60l35-104s-68 11-104 77c-35 67-42 102-42 102l29-148s-44 22-62 69c-18 46-22 68-22 68s-73-124-106-203c-33-80-49-142-49-142s-15 82-15 126 0 58 0 58l-45-107s-31 62-33 127c-2 64 2 70 2 70s-20-59-73-90-59-36-59-36 88 89 88 137c0 49 0 49 0 49s-22-62-82-99c-60-38-71-45-71-45s100 100 113 149c14 48 14 50 14 50s-43-59-160-99-152-20-152-20 154 11 208 124c53 113 30 141 30 141s-22-81-73-121c-50-40-106-49-106-49l62 82s-110 62-206 119c-95 58-205 204-203 191 2-14 26-95 26-95s-75 73-106 141c-31 69-48 117-48 117s-71 56-85 67c-13 11-6 62-6 62s-36 11-51 51c-16 40-24 75-24 75s-58 15-80 66-53 162-53 162-51 133-51 301 26 531 71 646c22 58 64 148 100 223 4-25 6-39 6-39 53-382 143-390 115-755-7-86 27-314 104-412 77-97 181-154 181-154s0 0-26 35c-27 35-44 128-44 128s53-82 135-132c82-51 212-34 212-34s0 0-35 11c-36 11-78 56-78 56s91-51 191-22c99 28 112 86 112 86l-86-60s29 44 93 91c64 46 170 46 170 46s-2 0-35-22-95-108-95-108 62 71 179 108c117 38 122 60 122 60l-53-106s44 35 90 84c47 49 115 49 115 49s-4-3-42-25c-37-22-42-66-42-66s113 97 270 86 257-46 257-46 0 0-62 31-100 37-100 37 42 22 149-13c106-35 163-78 163-78s36 27 120 270c84 244 93 354 62 518-18 97-65 363-100 582z" class="fil7"/><path d="M3979 2741c62-63 203-185 271-59 88 164 0 336-75 429-76 93-84 80-155 195-48 78-74 91-99 90 10-133 10-241 10-300 0-41 22-189 48-355zM1811 2302c-66-24-195-61-256-10-84 71-71 332-18 434s151 230 159 257c9 26 53 132 124 181 19 13 36 21 52 26 0-100 3-189 6-240 7-112 34-296 47-377-36-75-78-165-100-223-5-13-10-29-14-48zm122 219c-1 3-1 7-2 11 1-4 1-8 2-11z" class="fil3"/><path d="M3953 2913c55-66 172-210 261-180 69 22 62 142 48 225-22 61-56 114-87 153-74 91-84 80-151 188-14-12-28-31-35-60-20-75-36-117 2-161s-49-104-20-135 71 31 122-20c49-49 28-124-142 1l2-11z" class="fil8"/><path d="M4039 2870c36-47 91-112 162-91 98 29 2 257-53 292-55 36-113-15-104-62 5-27-17-59-42-74-12-2-22-2-31 8-29 31 58 91 20 135s-22 86-2 161c7 29 21 48 35 60 67-108 77-97 151-188 31-39 65-92 87-153 14-83 21-203-48-225-84-28-192 97-251 167 3 3 6 6 11 7 25-17 47-29 65-37z" class="fil1"/><path d="M1862 2437c-83-81-224-191-300-69-66 106-59 241-32 343 2 5 5 10 7 15 53 101 149 228 159 256 1-2 2-5 3-8 23-66-64-184-68-232-5-49 80 168 124 170 43 2 71 10 121 81 0-16 1-31 2-43 7-112 34-296 47-377-21-43-44-91-63-136zm71 84c-1 3-1 7-2 11 1-4 1-8 2-11z" class="fil8"/><path d="M1880 2479c-45-55-127-137-194-131-99 9-188 99-133 234 56 135 45 124 120 89 75-36 126-62 124-113s-120-64-122-102c-2-37 142-15 177 53 36 69-37 213-20 290 11 48 34 71 50 98-2 19-3 36-4 53-1 12-2 27-2 43-26-36-46-56-65-67-9-8-23-21-54-56-55-62-64-111-29-151 36-39-126-39-133 7-4 30-4 65 5 106-22-35-45-72-63-106-2-5-5-10-7-15-27-102-34-237 32-343 76-122 217-12 300 69 6 14 12 28 18 42z" class="fil1"/><path d="M1804 1405c-1 14 1 27 4 38 22 73 42 93 42 93s-20-69-5-107c16-37 16-37 16-37s0 93 82 117 126-53 126-53-49 24-71-9-22-42-22-42 33 42 82 20 20-73 66-128c47-56 115-87 115-87s-93 67-132 235c-47 110-66 266-61 334-11 218 15 89-11 297-14 115-79 280-104 458 0 0-2 14-6 39-36-75-78-165-100-223-45-115-71-478-71-646 0-156 44-282 50-299z" class="fil9"/><path fill="#008082" d="M1856 1246c1 6 3 12 5 17 22 62 126 82 126 82s-49-22-62-70c0 0 38 33 128 6 91-26 109-108 109-108s-80 40-128 17c-49-22-49-57-49-57s91 60 199 4c108-55 170-132 272-119s120 57 120 57-51-121-204-115c-153 7-268 87-268 87s129-131 222-133 95-2 95-2-51-20-142-25c-91-4-91-4-91-4s58-29 175-49 226-104 226-104-69 25-139 31c-71 7-98-6-98-6s84 8 153-25c68-33 203-77 203-77s-88-5-161-5-153 31-153 31 182-104 244-113c62-8 84 3 84 3l-60-82 104 84s15-117 4-173c-11-55-11-55-11-55s75 73 87 226c11 152 6 159 6 159l38-345s60 82 75 186c16 104 16 170 16 170s-3-296-18-369c-16-73-22-98-22-98s97 84 144 268c46 184 0 316 0 316s59-35 66-236c7-202-84-297-84-297s104 73 148 230-11 283-11 283 73-104 102-203c29-100 15-250 15-250s89 91 91 203c2 113-153 266-153 266s-88 60-166 164c-77 104-104 183-104 183s153-210 264-301c110-90 121-101 121-101s-159 205-221 303c-62 97-62 97-62 97l310-327-153 254s137-126 217-237c80-110 111-225 111-225s15 139 13 252-7 155-7 155l36-206s88 102 108 254c20 153 20 153 20 153s22-184 13-270c-8-86-13-91-13-91s104 175 113 253c9 77 7 99 7 99l28-84s3 73 62 148c34 43 81 79 118 112-32-68-65-116-90-149-62-84-99-226-99-226s-11-40-38-82c-26-42-31-53-31-53s-24-73-29-146c-4-73-4-230-4-230s-20 60-27 148c-6 89-4 93-4 93s-27-86-24-166c2-79 17-139 17-139s-26 44-51 128c-24 84-24 120-24 120s-24-124-22-184 2-60 2-60l-20 91s-9-20-35-55c-27-36-31-29-42-58s-29-75-22-137c6-62 11-82 11-82s-44 66-53 135-9 80-9 80l-29-138-31 78s-4-29 16-153c19-124 31-148 31-148s-87 77-116 117c-28 40-37 60-37 60l35-104s-68 11-104 77c-35 67-42 102-42 102l29-148s-44 22-62 69c-18 46-22 68-22 68s-73-124-106-203c-33-80-49-142-49-142s-15 82-15 126 0 58 0 58l-45-107s-31 62-33 127c-2 64 2 70 2 70s-20-59-73-90-59-36-59-36 88 89 88 137c0 49 0 49 0 49s-22-62-82-99c-60-38-71-45-71-45s100 100 113 149c14 48 14 50 14 50s-43-59-160-99-152-20-152-20 154 11 208 124c53 113 30 141 30 141s-22-81-73-121c-50-40-106-49-106-49l62 82s-110 62-206 119c-95 58-205 204-203 191 2-14 26-95 26-95s-75 73-106 141c-31 69-48 117-48 117s-71 56-85 67c-13 11-6 62-6 62s-36 11-51 51c-16 40-24 75-24 75s-58 15-80 66l-2 5z"/><path d="M4077 1444c10 36 26 115 32 253 3 78-8 179-24 273 9 78 3 146-12 227-17 87-56 310-89 513 4 12 9 22 15 31 16-25 32-55 43-88 26-80 15-195 37-270 23-75 87-117 87-476 0-212-42-360-89-463z" class="fil9"/><path fill="#f5b1ac" d="M2664 1250c-8 61 8 157 157 235 239 124 576 97 584 274 9 177-239 527-132 655 106 128-62 571-45 739 18 168 230 336 208 460s-230 195-358 195-474-150-474-150 84 212 412 261c327 48 327 53 283 194-40 129-58 247-339 317 69-3 139-17 206-47 221-97 363-243 429-305s257-199 296-438c40-239 40-451 40-544s111-735 142-899 22-274-62-518c-84-243-120-270-120-270s-57 43-163 78c-107 35-149 13-149 13s38-6 100-37 62-31 62-31-100 35-257 46-270-86-270-86 5 44 42 66c38 22 42 25 42 25s-68 0-115-49c-46-49-90-84-90-84l53 106s-5-22-122-60c-117-37-179-108-179-108s62 86 95 108 35 22 35 22-106 0-170-46c-64-47-93-91-93-91l86 60s-13-58-112-86c-8-2-15-4-22-5z"/><path fill="#ec6f88" d="M2863 1400c37 41 93 82 175 111 235 84 580 14 659 93 80 80-221 421-265 536s31 225 128 270c98 44 67 482-26 562-93 79-151 79-151 79l-97 45s4 62 203 115c200 53 315 150 222 345-67 139-265 528-487 733-44 56-119 105-264 141 69-3 139-17 206-47 221-97 363-243 429-305s257-199 296-438c40-239 40-451 40-544s111-735 142-899 22-274-62-518c-84-243-120-270-120-270s-39 30-114 60c-15 6-32 12-49 18-107 35-149 13-149 13s38-6 100-37 62-31 62-31-100 35-257 46-270-86-270-86 5 44 42 66c38 22 42 25 42 25s-68 0-115-49c-46-49-90-84-90-84l53 106s-5-22-122-60c-117-37-179-108-179-108s62 86 95 108 35 22 35 22-57 0-112-18z"/><path d="M3738 1432l1 1 2-1h-3zm24 43c84-33 129-66 129-66s36 27 120 270c84 244 93 354 62 518s-142 806-142 899c0 59 0 167-10 299-39 86-82 117-82 117s13-67 31-186c18-120 35-390 0-611s-474-297-496-345c-22-49 22-124 204-133 181-9 354 279 398 319s49-164 27-399c-22-234-49-283-155-513-31-68-60-124-86-169z" class="fil2"/><path d="M3900 3585c-43 104-115 254-203 334-141 128-181 137-181 137s128-164 181-270c54-106 27-204 27-204s-199 408-385 585-261 256-500 212-390-319-509-389c-120-71-248-239-274-328-25-81-164-103-184-408 2 168 15 349 50 430 62 142 155 230 270 323s261 279 381 341c119 62 371 133 593 35 221-97 363-243 429-305s257-199 296-438c3-18 6-37 9-55z" class="fil1"/><path d="M2781 3879s-31 40 23 80c53 39 108 31 112 57 5 27-39 38-39 38s30 11 108-7c77-18 106-57 106-93 0-35-135 9-310-75z" class="fil13"/><path d="M2575 1250c-34 27-66 66-90 122-93 212-58 319 221 460 279 142 394 261 341 407s-146 160-146 160-673-18-704 84c-26 86-165 77-252-38 47-267 98-519 98-519s10-61 3-147 27-314 104-412c77-97 181-154 181-154s0 0-26 35c-27 35-44 128-44 128s53-82 135-132c82-51 212-34 212-34s0 0-35 11c-36 11-78 56-78 56s33-18 80-27z" class="fil3"/><path d="M2149 1593s-80 306 61 394c142 89 324 266 324 266l-301 62s-141-111-177-304c-21-98-13-53-3-171 12-75 41-158 96-247z" class="fil8"/><path d="M2144 2390c-4-31-18-155 53-230 71-76 328-204 545-111 216 93 203 235 168 279-36 44-514-230-766 62z" class="fil2"/><path d="M2033 3860v269c0 84-97 217-123 460-27 244 22 629 31 792 8 164 88 492 119 691s18 318 80 447c62 128 79 150 79 150s151-619 275-841c124-221 265-349 349-389s213-128 253-239c39-111 349-629 389-828 17-86 21-157 20-211-78 70-191 157-339 222-222 98-474 27-593-35-120-62-266-248-381-341-59-48-112-94-159-147z" class="fil3"/><path d="M2655 5597l-697-592s213 1018 337 1168c14 18 31 34 48 48 47-151 101-304 151-393 52-93 108-170 161-231z" class="fil2"/><path d="M2086 3915c59 114 148 275 244 404 168 226 531 275 597 359 67 84-212 363-420 371-208 9-358-93-358-93s309 390 469 425c117 26 206 50 360-28 51-42 97-95 118-153 39-111 349-629 389-828 17-86 21-157 20-211-78 70-191 157-339 222-222 98-474 27-593-35-120-62-266-248-381-341-38-30-73-60-106-92z" class="fil1"/><path d="M2114 3941c-2 11-4 22-5 33-14 128 44 159-14 226-57 66-88 159-84 283 5 124 5 124 5 124s-38-103-52-260c34-99 69-167 69-218v-269c25 28 52 55 81 81z" class="fil2"/><path d="M2254 4210c8 10 15 20 23 30 119 150 385 265 540 283 155 17 456-84 447 57-9 142-71 399-230 478-160 80-248 40-239 155 4 54-2 129-9 193 56-1 116-15 192-53 51-42 97-95 118-153 39-111 349-629 389-828 17-86 21-157 20-211-78 70-191 157-339 222-222 98-474 27-593-35-120-62-266-248-381-341-38-30-73-60-106-92 43 84 102 192 168 295z" class="fil13"/><path d="M3435 4220c1 56-3 138-30 201-44 106-88 173-88 173s84-46 150-157c8-24 14-46 18-65 17-86 21-157 20-211-21 19-44 39-70 59z" class="fil14"/><path d="M1924 4494c14 242 46 821 56 980 12 175 166 659 336 838-56 191-97 357-97 357s-17-22-79-150c-62-129-49-248-80-447s-111-527-119-691c-9-163-58-548-31-792 3-34 8-66 14-95z" class="fil13"/><path d="M1929 3699c-112 139-286 372-356 558-106 283-106 288-106 288s261-540 350-575c88-36-124 340-129 535-4 195 80 173-31 359-110 185-296 323-296 323s199-102 323-177c124-76 124 22 186 349 62 328 146 783 159 952 9 113 12 178 34 286 73 131 131 253 147 329 31 146 31 385 31 385s115-1186 284-1372c168-186 557-336 655-381 92-41 97-265 97-289-69 57-44 194-142 250-101 57-84 8-208 66-124 57-181 88-234 124-53 35 75-160 203-244 129-84 169-97 284-305s323-535 340-699c12-108 14-245 14-326-9 9-19 17-29 26 1 54-3 125-20 211-40 199-350 717-389 828-40 111-169 199-253 239s-225 168-349 389c-124 222-275 841-275 841s-17-22-79-150c-62-129-49-248-80-447s-111-527-119-691c-9-163-58-548-31-792 26-243 123-376 123-460v-269c-40-47-75-99-104-161zm1611 1655c-23 118-141 206-188 257-49 54-137 23-137 23s9 0 88-58c80-57 204-177 191-252-2-12-9-21-18-29 29 19 52 40 62 55 1 1 2 3 2 4zm-78-67c-55-29-163-22-182-21 2-1 4-3 6-4 48-33 120-9 176 25zm-154-978c-6 3-11 7-17 10 6-3 11-7 17-10zm-113 61c-3 1-6 3-9 4l9-4zm-9 4c-3 2-6 3-10 5 4-2 7-3 10-5zm-10 5c-4 1-7 3-10 4 3-1 6-3 10-4zm-1068-444c-3-2-5-4-7-6 2 2 4 4 7 6z" class="fil7"/><path d="M1259 4890c-13-26-381-332-350-394s545-535 735-641c125-70 229-125 286-154-3-6-5-11-8-17-6-15-12-33-17-54-95 37-304 143-611 424-429 394-447 517-447 517l5 5c93 50 223 144 407 314zM3542 4128c10 50 26 168 14 408-18 343-88 685-115 742 28 9 49 23 53 46 4 21-4 46-18 72 9 16 19 31 29 45 18-30 32-64 37-100 18-123 85-995 80-1150-1-43-10-83-23-117l-4 4c-14 13-32 30-53 50zM1540 5749c49-190 127-470 188-421 89 71 106 279 111 452 3 147-51 246-37 390-68-107-166-267-262-421z" class="fil14"/><path d="M2874 2989c-58 26-213 98-357 173-181 95-267 148-250 277 18 128 113 336 113 336s-4-219 36-250c39-31 559 234 767 228 208-7 339-64 399-140 59-75-98-245-166-329-69-84-215-315-215-315s-4 8-12 21c17 73 37 158 43 184 11 49 66 66 78 128 11 62-38 98-80 98-26 0-52 1-75 3-1 2-3 3-7 5-65 24-74 48-136 53-62 4-76-34-102-72-8-13-18-29-28-45-44-28-81-39-119-64-51-33-58-55-33-117 22-57 82-67 144-174z" class="fil3"/><path d="M2683 3151c-51 40-106 87-135 126-64 86 34 210 222 254 188 45 181 124 424 76 244-49 262-80 248-155-13-75 104 44 109 110 3 45-10 88-94 139-68 29-159 48-274 52-208 6-728-259-767-228-40 31-36 250-36 250s-95-208-113-336c-17-129 69-182 250-277 109-57 223-111 298-146l-3 15c-45 36-96 81-129 120z" class="fil2"/><path d="M2455 3444s121 49 201 51 170 4 239 51c70 46 137 62 189 55 53-6 114-22 168-15 55 6 139 6 162 6s40 11 29 29c-10 18-167 226-354 239s-385-66-471-157-159-177-184-206c-26-29 8-71 21-53z" class="fil1"/><path d="M2876 3644s-224-94-261-126c-13-12-40-28-70-44-50-14-90-30-90-30-13-18-47 24-21 53 14 17 46 54 88 101-1-6-2-10-2-10s104 149 287 207c184 57 375 23 375 23s-134-4-167-18c-32-13 101 0 203-19 52-9 104-38 146-68 46-45 75-85 79-92 11-18-6-29-29-29-8 0-24 0-44 0-31 16-74 37-139 53-116 30-325 50-355-1z" class="fil15"/><path d="M2142 2512s-42-205 67-289c108-84 591 35 672 110 82 75 133 204 102 370s-113 327-234 356c-122 29-339-235-403-263-64-29-148-27-137 44s113 155 113 155-195-13-213-159c-17-147 11-257 33-324z" class="fil8"/><path d="M2193 2517c20-27 62-204 321-206s350 162 392 274c42 113-117 239-259 264-142 24-184 31-257-25-73-55-95-128-95-128s73 84 164 84c88 0 141-69 107-97h1c47 2 217 29 239 9s-73-67-168-82c-95-16-159-25-208-9-49 15-153 13-153 13 14 17 43 30 78 40-29 4-58 9-82 13-73 14-135-26-135-26s64-86 254-100c191-13 348 102 385 82 38-20 27-146-157-188-183-42-261-66-427 82z" class="fil1"/><path d="M2804 2701s-79-93-167-118c-87-24-188-20-260-8-71 11-104 51-111 70s533 77 538 56z" class="fil13"/><ellipse class="fil6" rx="139" ry="133" transform="matrix(1.05955 .10513 -.0537 .54125 2553.39 2640.18)"/><path d="M2345 2664c-1 2-1 5 0 7 4 18 103 45 262 42 49-1 94-4 134-8-139-9-290-26-396-41z" class="fil3"/><path d="M2322 2505s48-56 234-37 196 108 196 108l-59-4s-143-146-371-67z" class="fil13"/><path d="M2158 2375s208-135 343-99c135 35 232 121 314 130s108-6 128-71c20-64-214-188-407-179-192 9-329 142-378 219z" class="fil7"/><path d="M3295 2406s-126 89-157 257 42 376 120 425c77 48 152 62 347-38 195-99 241-60 243-18 3 42-37 98-119 118s-113 20-113 20 137 20 228-22c91-43 93-109 115-166 22-58 27-189 13-217-13-29-59-25-59-25s19-150-122-241c-142-91-376-108-496-93z" class="fil8"/><path d="M3346 2457s-49 16-111 144-57 228-48 283c9 56 15 69 15 69s-4-95 58-98c62-2 172 98 274 129s248-22 277-60 11-157-129-210c-139-53-349-22-345-47 5-24 69-155 202-174 0 0-51-47-193-36z" class="fil1"/><path d="M3251 2789s100-71 190-73c91-2 188 27 255 55 66 29 88 76 90 96 3 19-535-56-535-78z" class="fil13"/><path d="M3622 2744c27 16 43 36 41 57-3 24-30 43-70 52-62-7-130-17-189-27-24-16-39-35-37-55 3-27 37-48 85-55 57 0 117 12 170 28z" class="fil6"/><path d="M2931 2391c20 11 43 25 67 42 49 35 191 15 265 1-39 38-104 115-125 229-3 17-5 34-6 52l-11 17-137-35c23-127-3-231-53-306z" class="fil3"/><path d="M3372 2820c58 44 160 116 254 106 87-9 103-34 90-59-88-7-238-28-344-47z" class="fil15"/><path d="M3310 2692c6-14 154-144 281-160 126-15 278 124 267 171-11 46-363-69-548-11zM3161 2871s60 254 71 303 66 66 78 128c11 62-38 98-80 98-26 0-52 1-75 3-1 2-3 3-7 5-65 24-74 48-136 53-62 4-76-34-102-72-8-13-18-29-28-45-44-28-81-39-119-64-51-33-58-55-33-117 24-62 93-69 161-206 69-137 91-201 91-201s182-47 179 115z" class="fil3"/><path d="M3178 2940c-29-32-68-68-110-76-81-15-95 226-132 268-38 42-96 62-80 102 15 40 35 106 93 102 57-5 75-62 135-18s146 77 181 20c36-58-157-115-175-168-17-53-2-239 34-239 22 0 42 31 67 68 17 71 35 150 41 175 11 49 66 66 78 128 11 62-38 98-80 98s-84 2-115 9c-31 6-117 33-184-27-66-60-117-69-168-102s-58-55-33-117c24-62 93-69 161-206 69-137 91-201 91-201s182-47 179 115l17 69z" class="fil8"/><path d="M3160 2846c-34-26-73-48-105-44-73 9-142 191-157 259-15 69-20 104-53 84s-97-2-122 45c-2 3-4 7-5 11 2-11 6-23 12-38 24-62 93-69 161-206 69-137 91-201 91-201s162-42 178 90zm-399 433c10 0 21-3 33-12 33-27 33-38 33-38s-18 40 12 91c-26-13-51-24-76-40l-2-1z" class="fil1"/><path d="M3179 2981c-3 28-7 61-7 80 0 40 14 129 22 144 7 12 57 22 97 53-21-30-51-49-59-84-6-25-24-104-41-175-4-6-8-12-12-18zM2764 3281c12 4 25 7 34 9 30 6 56 14 83 36 12 9 16 20 21 32-52-38-95-49-138-77zm308 136c41-13 77-31 86-34 18-5 56 13 90 15-6 1-12 2-18 2-42 0-84 2-115 9-10 2-25 6-43 8z" class="fil13"/><path d="M2476 3486s216 78 228 84c13 7 116 38 178 59s154 51 247 31c92-20 139-22 174-28 34-5 93-14 98-2 6 12-87 47-130 74s-99 46-168 52c-68 6-211-4-321-48-110-43-268-193-306-222z" class="fil7"/><path d="M2624 3540c5 15 11 34 14 41 7 12 46 27 46 27s10 34 19 36c10 2 28 0 28 0s11 14 31 21c20 8 52 24 67 25 16 1 23-1 23-1s10 15 17 18c8 4 61 26 78 20 17-5 21-10 21-10s19 19 35 22c15 4 94 10 101 4 8-7 18-29 18-29s20 21 31 22c10 1 40-21 40-21s26 9 36 2c11-6 41-30 41-30s13-1 25-12c8-6 15-28 19-45l-11 2c-35 6-82 8-174 28-93 20-185-10-247-31s-165-52-178-59c-4-2-39-15-80-30z" class="fil6"/><path d="M2647 3590c-3-10-5-21-2-28 3-6 11-8 19-7-12-5-25-10-40-15 5 15 11 34 14 41 2 3 5 6 9 9zm39-27c2 2 3 3 4 5 2 11-5 34-5 34s18-21 30-28c-5-1-9-3-11-4-1-1-8-3-18-7zm45 17c2 7 2 18 3 27 1 14-3 37 0 28 2-7 15-35 28-45-12-4-22-7-31-10zm58 19c5 6 8 12 8 15 0 7 0 29 0 29s13-25 30-30c2 0 5 0 7 0-15-5-30-10-45-14zm52 16c14 7 26 22 26 22s14-3 32-2c-6-2-12-4-17-6-12-4-26-9-41-14zm117 37c10 8 16 16 16 16l1 24s8-24 17-33c-12-2-23-4-34-7zm151 11c9 4 15 28 15 28s0-20 5-31c-7 1-14 2-20 3zm81-15l10 35s10-28 24-41c-10 2-22 4-34 6zm51-8c10 7 17 28 17 22 0-5 6-16 16-26-10 1-21 2-33 4z" class="fil4"/><path d="M2734 3685c-41-14-88-32-126-54-84-50-197-163-152-166 34-3 129 49 210 90-66-24-190-69-190-69 33 25 155 140 258 199zm611-59c15-5 28-8 37-9 44-5 53 7 33 30-20 22-142 105-217 109-35 2-80 2-119 1 9 0 17 0 24-1 69-6 125-25 168-52s136-62 130-74c-3-8-29-7-56-4z" class="fil4"/><path d="M2892 3360c-42-8-94-18-145-23-117-14-134-93-73-175 41-54 126-123 179-163l21-10c-62 107-122 117-144 174-25 62-18 84 33 117 38 25 75 36 119 64 3 6 7 11 10 16z" class="fil13"/><path d="M3148 3408c39 8 85 16 119 17 78 2 118-40 89-155-12-48-32-98-50-140-55-82-105-161-105-161s-4 8-12 21c17 73 37 158 43 184 11 49 66 66 78 128 11 62-38 98-80 98-26 0-52 1-75 3-1 2-3 3-7 5zM2387 3354s-62 45-62 89 7 122 7 122-65-146-47-175 102-36 102-36z" class="fil1"/><path d="M3289 2366s-40 38-27 111 108 55 201 44 219-13 301 16 122 73 122 73-27-140-162-199c-134-60-289-69-435-45z" class="fil7"/><path d="M2060 2496l-259-252s-20 20-9 40c11 19 233 329 233 329l35-117zM4036 2804s33-149 31-189c-2-39-5-130-5-130s-28 18-44 84c-15 66-44 215-44 215l62 20z" class="fil16"/><path d="M2025 2477s-26 120-13 155 64 49 64 49-20 208 89 270c108 62 469 135 579 126 111-9 157-95 195-151 38-55 55-99 55-99s64-42 111 13c46 55 29 150 102 237 73 86 475 148 604 110 128-37 177-230 177-230s48-51 62-66c13-16 13-109 13-109s-128-53-272-90c-144-38-467-53-569-33-102 19-108 24-108 24l-98-7s-35-71-179-99c-144-29-515-87-703-87 0 0-60-4-109-13zm111 78c99-38 487 24 626 50 139 27 181 84 184 115 2 31-36 144-82 233-47 88-135 93-299 73s-363-69-420-144c-58-75-9-327-9-327zm1060 194c15-102 575-13 650 7s106 51 102 133-11 228-168 261-425-27-505-80c-79-53-90-208-90-250s11-71 11-71z" class="fil7"/><path d="M3584 2734c7 12 11 27 11 43 0 29-15 55-37 72h-2l-3-1h-4l-2-1h-6l-1-1h-6l-1-1h-7l-1-1h-5l-1-1h-6l-1-1h-6l-3-1h-4l-2-1h-4l-2-1h-6v-1h-6l-3-1h-4l-1-1h-5l-1-1h-6l-1-1h-5l-1-1h-6l-2-1h-4l-2-1h-4l-2-1h-4l-1-1h-1c-11-14-18-33-18-52 0-21 8-41 21-56 7-2 15-4 23-5 22 0 45 2 68 5 4 1 9 1 13 2h2l1 1h5l3 1h3c1 1 3 1 5 1v1h3l2 1h3l2 1h4l2 1h3l2 1 3 1h3l2 1 3 1z" class="fil13"/><path d="M3451 2822c-7-15-20-38-12-53 11-20 34 30 68 37 33 6 59-36 59-36s16 25 1 63c-38 17-78 11-116-11z" class="fil4"/><path d="M2607 2577c18 14 29 35 29 58 0 24-12 45-31 60-45-4-93-9-138-14-11-13-17-29-17-46 0-27 15-50 38-65 15-2 33-3 51-3 18 1 37 4 55 7 5 1 9 2 13 3z" class="fil13"/><path d="M2597 2686c-12 2-23 4-35 5-17-2-34-3-51-5-7-2-13-5-19-9 5-17 17-39 37-44 32-8 36-5 38 19 2 14 18 27 35 34h-5z" class="fil4"/></g></g></svg>